<svg xmlns="http://www.w3.org/2000/svg" xmlns:xlink="http://www.w3.org/1999/xlink" width="210" zoomAndPan="magnify" viewBox="0 0 157.5 112.499997" height="150" preserveAspectRatio="xMidYMid meet" version="1.0"><defs><clipPath id="d29848354a"><path d="M 0.0976562 0 L 156.902344 0 L 156.902344 112.003906 L 0.0976562 112.003906 Z M 0.0976562 0 " clip-rule="nonzero"/></clipPath><clipPath id="aca8093998"><path d="M 0.0976562 0 L 156.902344 0 L 156.902344 112.003906 L 0.0976562 112.003906 Z M 0.0976562 0 " clip-rule="nonzero"/></clipPath><clipPath id="e1cfc9ca6e"><rect x="0" width="157" y="0" height="113"/></clipPath><clipPath id="6a04a98dcf"><path d="M 28.875 6.375 L 128.125 6.375 L 128.125 105.625 L 28.875 105.625 Z M 28.875 6.375 " clip-rule="nonzero"/></clipPath><clipPath id="bd97a6823d"><path d="M 78.5 6.375 C 51.09375 6.375 28.875 28.59375 28.875 56 C 28.875 83.40625 51.09375 105.625 78.5 105.625 C 105.90625 105.625 128.125 83.40625 128.125 56 C 128.125 28.59375 105.90625 6.375 78.5 6.375 Z M 78.5 6.375 " clip-rule="nonzero"/></clipPath><clipPath id="b2a2c1729b"><path d="M 0.875 0.375 L 100.125 0.375 L 100.125 99.625 L 0.875 99.625 Z M 0.875 0.375 " clip-rule="nonzero"/></clipPath><clipPath id="730c9a19bd"><path d="M 50.5 0.375 C 23.09375 0.375 0.875 22.59375 0.875 50 C 0.875 77.40625 23.09375 99.625 50.5 99.625 C 77.90625 99.625 100.125 77.40625 100.125 50 C 100.125 22.59375 77.90625 0.375 50.5 0.375 Z M 50.5 0.375 " clip-rule="nonzero"/></clipPath><clipPath id="0c51b2259a"><rect x="0" width="101" y="0" height="100"/></clipPath><clipPath id="41a66b51c2"><path d="M 28.875 6.375 L 128.117188 6.375 L 128.117188 105.617188 L 28.875 105.617188 Z M 28.875 6.375 " clip-rule="nonzero"/></clipPath><clipPath id="6607570908"><path d="M 78.496094 6.375 C 51.09375 6.375 28.875 28.59375 28.875 55.996094 C 28.875 83.398438 51.09375 105.617188 78.496094 105.617188 C 105.898438 105.617188 128.117188 83.398438 128.117188 55.996094 C 128.117188 28.59375 105.898438 6.375 78.496094 6.375 Z M 78.496094 6.375 " clip-rule="nonzero"/></clipPath><clipPath id="e7a16a86d5"><path d="M 46.53125 23.988281 L 110.746094 23.988281 L 110.746094 88.203125 L 46.53125 88.203125 Z M 46.53125 23.988281 " clip-rule="nonzero"/></clipPath></defs><g clip-path="url(#d29848354a)"><g transform="matrix(1, 0, 0, 1, 0.000000000000000014, 0)"><g clip-path="url(#e1cfc9ca6e)"><g clip-path="url(#aca8093998)"><path fill="#ffd3eb" d="M 0.0976562 0 L 156.742188 0 L 156.742188 138.277344 L 0.0976562 138.277344 Z M 0.0976562 0 " fill-opacity="1" fill-rule="nonzero"/></g></g></g></g><g clip-path="url(#6a04a98dcf)"><g clip-path="url(#bd97a6823d)"><g transform="matrix(1, 0, 0, 1, 28, 6)"><g clip-path="url(#0c51b2259a)"><g clip-path="url(#b2a2c1729b)"><g clip-path="url(#730c9a19bd)"><path fill="#ffd3eb" d="M 0.875 0.375 L 100.125 0.375 L 100.125 99.625 L 0.875 99.625 Z M 0.875 0.375 " fill-opacity="1" fill-rule="nonzero"/></g></g></g></g></g></g><g clip-path="url(#41a66b51c2)"><g clip-path="url(#6607570908)"><path stroke-linecap="butt" transform="matrix(0.746681, 0, 0, 0.746681, 28.876634, 6.376634)" fill="none" stroke-linejoin="miter" d="M 66.453326 -0.00218802 C 29.75448 -0.00218802 -0.00218834 29.754481 -0.00218834 66.453326 C -0.00218834 103.152171 29.75448 132.90884 66.453326 132.90884 C 103.152171 132.90884 132.90884 103.152171 132.90884 66.453326 C 132.90884 29.754481 103.152171 -0.00218802 66.453326 -0.00218802 Z M 66.453326 -0.00218802 " stroke="#000000" stroke-width="10" stroke-opacity="1" stroke-miterlimit="4"/></g></g><g clip-path="url(#e7a16a86d5)"><path fill="#000000" d="M 107.464844 52.914062 C 106.070312 52.914062 104.886719 53.847656 104.511719 55.121094 L 98.980469 55.121094 C 98.507812 50.285156 96.351562 45.933594 93.109375 42.664062 L 102.496094 33.273438 C 102.945312 33.519531 103.445312 33.648438 103.96875 33.648438 C 104.792969 33.648438 105.566406 33.328125 106.148438 32.742188 C 107.347656 31.542969 107.347656 29.585938 106.148438 28.386719 C 104.945312 27.1875 102.992188 27.1875 101.789062 28.386719 C 100.804688 29.371094 100.628906 30.867188 101.261719 32.035156 L 91.824219 41.472656 C 88.445312 38.605469 84.132812 36.804688 79.414062 36.605469 L 79.414062 30.023438 C 80.6875 29.644531 81.621094 28.464844 81.621094 27.070312 C 81.621094 25.371094 80.238281 23.992188 78.539062 23.992188 C 76.839844 23.992188 75.457031 25.371094 75.457031 27.070312 C 75.457031 28.464844 76.390625 29.644531 77.664062 30.023438 L 77.664062 36.605469 C 72.945312 36.804688 68.632812 38.605469 65.253906 41.472656 L 55.8125 32.035156 C 56.445312 30.867188 56.273438 29.371094 55.285156 28.386719 C 54.085938 27.1875 52.128906 27.1875 50.929688 28.386719 C 49.730469 29.585938 49.730469 31.542969 50.929688 32.742188 C 51.511719 33.328125 52.285156 33.648438 53.109375 33.648438 C 53.628906 33.648438 54.132812 33.519531 54.578125 33.273438 L 63.96875 42.664062 C 60.722656 45.933594 58.566406 50.285156 58.097656 55.121094 L 52.566406 55.121094 C 52.1875 53.847656 51.007812 52.914062 49.613281 52.914062 C 47.914062 52.914062 46.53125 54.296875 46.53125 55.996094 C 46.53125 57.695312 47.914062 59.078125 49.613281 59.078125 C 51.007812 59.078125 52.1875 58.144531 52.566406 56.871094 L 58.003906 56.871094 C 58 56.957031 58 57.042969 58 57.128906 C 58 62.1875 59.839844 66.828125 62.886719 70.410156 L 54.578125 78.71875 C 53.410156 78.085938 51.914062 78.261719 50.929688 79.246094 C 49.730469 80.449219 49.730469 82.402344 50.929688 83.605469 C 51.53125 84.203125 52.320312 84.503906 53.109375 84.503906 C 53.898438 84.503906 54.6875 84.203125 55.285156 83.605469 C 56.273438 82.617188 56.445312 81.125 55.8125 79.957031 L 64.074219 71.695312 C 67.597656 75.191406 72.375 77.421875 77.664062 77.644531 L 77.664062 81.96875 C 76.390625 82.347656 75.457031 83.527344 75.457031 84.925781 C 75.457031 86.621094 76.839844 88.003906 78.539062 88.003906 C 80.238281 88.003906 81.621094 86.621094 81.621094 84.925781 C 81.621094 83.527344 80.6875 82.347656 79.414062 81.96875 L 79.414062 77.644531 C 84.703125 77.421875 89.480469 75.191406 93 71.695312 L 101.261719 79.957031 C 100.628906 81.125 100.804688 82.617188 101.789062 83.605469 C 102.390625 84.203125 103.179688 84.503906 103.96875 84.503906 C 104.757812 84.503906 105.546875 84.203125 106.148438 83.605469 C 107.347656 82.402344 107.347656 80.449219 106.148438 79.246094 C 105.160156 78.261719 103.667969 78.085938 102.5 78.71875 L 94.191406 70.410156 C 97.238281 66.828125 99.078125 62.1875 99.078125 57.128906 C 99.078125 57.042969 99.074219 56.957031 99.074219 56.871094 L 104.511719 56.871094 C 104.890625 58.144531 106.070312 59.078125 107.464844 59.078125 C 109.164062 59.078125 110.546875 57.695312 110.546875 55.996094 C 110.546875 54.296875 109.164062 52.914062 107.464844 52.914062 Z M 49.613281 57.328125 C 48.878906 57.328125 48.28125 56.730469 48.28125 55.996094 C 48.28125 55.261719 48.878906 54.664062 49.613281 54.664062 C 50.347656 54.664062 50.941406 55.261719 50.941406 55.996094 C 50.941406 56.730469 50.347656 57.328125 49.613281 57.328125 Z M 103.027344 29.625 C 103.289062 29.363281 103.628906 29.234375 103.96875 29.234375 C 104.308594 29.234375 104.648438 29.363281 104.910156 29.625 C 105.429688 30.144531 105.429688 30.988281 104.90625 31.507812 C 104.65625 31.757812 104.324219 31.898438 103.96875 31.898438 C 103.613281 31.898438 103.28125 31.757812 103.027344 31.507812 C 103.027344 31.503906 103.027344 31.503906 103.027344 31.503906 C 102.511719 30.984375 102.511719 30.144531 103.027344 29.625 Z M 77.207031 27.070312 C 77.207031 26.335938 77.804688 25.742188 78.539062 25.742188 C 79.273438 25.742188 79.871094 26.335938 79.871094 27.070312 C 79.871094 27.804688 79.273438 28.398438 78.539062 28.398438 C 77.804688 28.398438 77.207031 27.804688 77.207031 27.070312 Z M 52.167969 31.503906 C 51.648438 30.988281 51.648438 30.144531 52.167969 29.625 C 52.425781 29.363281 52.765625 29.234375 53.109375 29.234375 C 53.449219 29.234375 53.789062 29.363281 54.046875 29.625 C 54.566406 30.140625 54.566406 30.984375 54.050781 31.503906 C 54.046875 31.503906 54.046875 31.503906 54.046875 31.503906 C 54.046875 31.503906 54.046875 31.507812 54.046875 31.507812 C 53.796875 31.757812 53.460938 31.898438 53.109375 31.898438 C 52.753906 31.898438 52.417969 31.757812 52.167969 31.503906 Z M 54.046875 82.367188 C 53.53125 82.886719 52.6875 82.886719 52.167969 82.367188 C 51.648438 81.847656 51.648438 81.003906 52.167969 80.484375 C 52.425781 80.226562 52.765625 80.097656 53.109375 80.097656 C 53.449219 80.097656 53.789062 80.226562 54.046875 80.484375 C 54.566406 81.003906 54.566406 81.847656 54.046875 82.367188 Z M 79.871094 84.925781 C 79.871094 85.65625 79.273438 86.253906 78.539062 86.253906 C 77.804688 86.253906 77.207031 85.65625 77.207031 84.925781 C 77.207031 84.1875 77.804688 83.589844 78.539062 83.589844 C 79.273438 83.589844 79.871094 84.1875 79.871094 84.925781 Z M 104.910156 80.484375 C 105.429688 81.003906 105.429688 81.847656 104.910156 82.367188 C 104.390625 82.886719 103.546875 82.886719 103.027344 82.367188 C 102.511719 81.847656 102.511719 81.003906 103.027344 80.484375 C 103.289062 80.226562 103.628906 80.097656 103.96875 80.097656 C 104.308594 80.097656 104.648438 80.226562 104.910156 80.484375 Z M 78.539062 75.914062 C 68.179688 75.914062 59.75 67.488281 59.75 57.128906 C 59.75 46.765625 68.179688 38.335938 78.539062 38.335938 C 88.898438 38.335938 97.328125 46.765625 97.328125 57.128906 C 97.328125 67.488281 88.898438 75.914062 78.539062 75.914062 Z M 107.464844 57.328125 C 106.730469 57.328125 106.132812 56.730469 106.132812 55.996094 C 106.132812 55.261719 106.730469 54.664062 107.464844 54.664062 C 108.199219 54.664062 108.796875 55.261719 108.796875 55.996094 C 108.796875 56.730469 108.199219 57.328125 107.464844 57.328125 Z M 91.0625 54.335938 C 91.0625 51.964844 89.132812 50.039062 86.765625 50.039062 C 86.375 50.039062 85.996094 50.09375 85.636719 50.191406 C 85.378906 48.453125 84.199219 47.011719 82.582031 46.398438 C 82.746094 45.945312 82.835938 45.453125 82.835938 44.941406 C 82.835938 42.574219 80.910156 40.648438 78.539062 40.648438 C 76.171875 40.648438 74.246094 42.574219 74.246094 44.941406 C 74.246094 45.453125 74.335938 45.941406 74.5 46.398438 C 72.878906 47.007812 71.699219 48.453125 71.4375 50.191406 C 71.078125 50.09375 70.703125 50.039062 70.3125 50.039062 C 67.941406 50.039062 66.015625 51.964844 66.015625 54.335938 C 66.015625 54.84375 66.105469 55.335938 66.269531 55.789062 C 64.429688 56.484375 63.15625 58.253906 63.15625 60.304688 L 63.15625 64.257812 C 63.15625 64.742188 63.546875 65.132812 64.03125 65.132812 L 71.679688 65.132812 C 71.488281 65.652344 71.386719 66.214844 71.386719 66.800781 L 71.386719 70.75 C 71.386719 71.234375 71.777344 71.625 72.261719 71.625 L 84.816406 71.625 C 85.300781 71.625 85.691406 71.234375 85.691406 70.75 L 85.691406 66.800781 C 85.691406 66.214844 85.585938 65.65625 85.394531 65.132812 L 93.046875 65.132812 C 93.53125 65.132812 93.921875 64.742188 93.921875 64.257812 L 93.921875 60.304688 C 93.921875 58.253906 92.644531 56.484375 90.808594 55.789062 C 90.972656 55.335938 91.0625 54.84375 91.0625 54.335938 Z M 89.3125 54.335938 C 89.3125 55.738281 88.167969 56.878906 86.765625 56.878906 C 85.363281 56.878906 84.222656 55.738281 84.222656 54.335938 C 84.222656 52.933594 85.363281 51.789062 86.765625 51.789062 C 88.167969 51.789062 89.3125 52.933594 89.3125 54.335938 Z M 78.539062 42.398438 C 79.941406 42.398438 81.085938 43.539062 81.085938 44.941406 C 81.085938 46.347656 79.941406 47.488281 78.539062 47.488281 C 77.136719 47.488281 75.996094 46.347656 75.996094 44.941406 C 75.996094 43.539062 77.136719 42.398438 78.539062 42.398438 Z M 73.136719 50.910156 C 73.136719 49.507812 74.128906 48.273438 75.460938 47.929688 C 76.242188 48.738281 77.332031 49.238281 78.539062 49.238281 C 79.746094 49.238281 80.839844 48.738281 81.621094 47.933594 C 82.949219 48.277344 83.941406 49.507812 83.941406 50.910156 L 83.941406 51.101562 C 83.042969 51.890625 82.472656 53.046875 82.472656 54.335938 C 82.472656 54.847656 82.5625 55.335938 82.726562 55.792969 C 81.976562 56.082031 81.304688 56.554688 80.777344 57.167969 C 80.125 56.765625 79.359375 56.535156 78.539062 56.535156 C 77.71875 56.535156 76.953125 56.765625 76.300781 57.167969 C 75.773438 56.554688 75.101562 56.078125 74.351562 55.792969 C 74.515625 55.335938 74.605469 54.847656 74.605469 54.335938 C 74.605469 53.046875 74.035156 51.890625 73.136719 51.101562 Z M 75.996094 60.832031 C 75.996094 59.429688 77.136719 58.285156 78.539062 58.285156 C 79.941406 58.285156 81.085938 59.429688 81.085938 60.832031 C 81.085938 62.234375 79.941406 63.371094 78.539062 63.371094 C 77.136719 63.371094 75.996094 62.234375 75.996094 60.832031 Z M 70.3125 51.789062 C 71.714844 51.789062 72.855469 52.933594 72.855469 54.335938 C 72.855469 55.738281 71.714844 56.878906 70.3125 56.878906 C 68.90625 56.878906 67.765625 55.738281 67.765625 54.335938 C 67.765625 52.933594 68.90625 51.789062 70.3125 51.789062 Z M 64.90625 60.304688 C 64.90625 58.898438 65.898438 57.667969 67.230469 57.324219 C 68.011719 58.128906 69.101562 58.628906 70.3125 58.628906 C 71.519531 58.628906 72.613281 58.128906 73.394531 57.320312 C 74.035156 57.484375 74.605469 57.851562 75.023438 58.367188 C 74.535156 59.066406 74.246094 59.914062 74.246094 60.832031 C 74.246094 61.339844 74.335938 61.828125 74.496094 62.28125 C 73.851562 62.527344 73.273438 62.90625 72.796875 63.382812 L 68.40625 63.382812 L 68.40625 61.488281 C 68.40625 61.003906 68.015625 60.613281 67.53125 60.613281 C 67.046875 60.613281 66.65625 61.003906 66.65625 61.488281 L 66.65625 63.382812 L 64.90625 63.382812 Z M 83.941406 69.875 L 82.191406 69.875 L 82.191406 67.984375 C 82.191406 67.5 81.796875 67.109375 81.316406 67.109375 C 80.832031 67.109375 80.441406 67.5 80.441406 67.984375 L 80.441406 69.875 L 76.636719 69.875 L 76.636719 67.984375 C 76.636719 67.5 76.246094 67.109375 75.761719 67.109375 C 75.277344 67.109375 74.886719 67.5 74.886719 67.984375 L 74.886719 69.875 L 73.136719 69.875 L 73.136719 66.800781 C 73.136719 65.367188 74.109375 64.15625 75.457031 63.816406 C 76.238281 64.621094 77.332031 65.121094 78.539062 65.121094 C 79.746094 65.121094 80.839844 64.621094 81.621094 63.816406 C 82.964844 64.160156 83.941406 65.378906 83.941406 66.800781 Z M 92.171875 60.304688 L 92.171875 63.382812 L 90.417969 63.382812 L 90.417969 61.488281 C 90.417969 61.003906 90.027344 60.613281 89.542969 60.613281 C 89.0625 60.613281 88.667969 61.003906 88.667969 61.488281 L 88.667969 63.382812 L 84.269531 63.382812 C 83.796875 62.910156 83.222656 62.53125 82.582031 62.285156 C 82.746094 61.832031 82.835938 61.34375 82.835938 60.832031 C 82.835938 59.914062 82.546875 59.066406 82.054688 58.367188 C 82.472656 57.851562 83.046875 57.484375 83.683594 57.320312 C 84.464844 58.128906 85.558594 58.628906 86.765625 58.628906 C 87.972656 58.628906 89.066406 58.128906 89.847656 57.324219 C 91.179688 57.667969 92.171875 58.898438 92.171875 60.304688 Z M 92.171875 60.304688 " fill-opacity="1" fill-rule="nonzero"/></g></svg>