<svg xmlns="http://www.w3.org/2000/svg" xmlns:xlink="http://www.w3.org/1999/xlink" width="210" zoomAndPan="magnify" viewBox="0 0 157.5 112.499997" height="150" preserveAspectRatio="xMidYMid meet" version="1.0"><defs><clipPath id="4d2e847b3d"><path d="M 0.0976562 0 L 156.902344 0 L 156.902344 112.003906 L 0.0976562 112.003906 Z M 0.0976562 0 " clip-rule="nonzero"/></clipPath><clipPath id="6d49a01fcb"><path d="M 0.0976562 0 L 156.902344 0 L 156.902344 112.003906 L 0.0976562 112.003906 Z M 0.0976562 0 " clip-rule="nonzero"/></clipPath><clipPath id="88b159f5cc"><rect x="0" width="157" y="0" height="113"/></clipPath><clipPath id="0ae829c996"><path d="M 28.875 6.375 L 128.125 6.375 L 128.125 105.625 L 28.875 105.625 Z M 28.875 6.375 " clip-rule="nonzero"/></clipPath><clipPath id="479eb608b2"><path d="M 78.5 6.375 C 51.09375 6.375 28.875 28.59375 28.875 56 C 28.875 83.40625 51.09375 105.625 78.5 105.625 C 105.90625 105.625 128.125 83.40625 128.125 56 C 128.125 28.59375 105.90625 6.375 78.5 6.375 Z M 78.5 6.375 " clip-rule="nonzero"/></clipPath><clipPath id="bc4e3776f1"><path d="M 0.875 0.375 L 100.125 0.375 L 100.125 99.625 L 0.875 99.625 Z M 0.875 0.375 " clip-rule="nonzero"/></clipPath><clipPath id="f41ac28e7e"><path d="M 50.5 0.375 C 23.09375 0.375 0.875 22.59375 0.875 50 C 0.875 77.40625 23.09375 99.625 50.5 99.625 C 77.90625 99.625 100.125 77.40625 100.125 50 C 100.125 22.59375 77.90625 0.375 50.5 0.375 Z M 50.5 0.375 " clip-rule="nonzero"/></clipPath><clipPath id="b3395832a8"><rect x="0" width="101" y="0" height="100"/></clipPath><clipPath id="c3aff27d07"><path d="M 28.875 6.375 L 128.117188 6.375 L 128.117188 105.617188 L 28.875 105.617188 Z M 28.875 6.375 " clip-rule="nonzero"/></clipPath><clipPath id="83a83608bc"><path d="M 78.496094 6.375 C 51.09375 6.375 28.875 28.59375 28.875 55.996094 C 28.875 83.398438 51.09375 105.617188 78.496094 105.617188 C 105.898438 105.617188 128.117188 83.398438 128.117188 55.996094 C 128.117188 28.59375 105.898438 6.375 78.496094 6.375 Z M 78.496094 6.375 " clip-rule="nonzero"/></clipPath><clipPath id="1b43a14ded"><path d="M 50.800781 25.023438 L 106.054688 25.023438 L 106.054688 80.277344 L 50.800781 80.277344 Z M 50.800781 25.023438 " clip-rule="nonzero"/></clipPath></defs><g clip-path="url(#4d2e847b3d)"><g transform="matrix(1, 0, 0, 1, 0.000000000000000014, 0)"><g clip-path="url(#88b159f5cc)"><g clip-path="url(#6d49a01fcb)"><path fill="#b8c8f7" d="M 0.0976562 0 L 156.742188 0 L 156.742188 138.277344 L 0.0976562 138.277344 Z M 0.0976562 0 " fill-opacity="1" fill-rule="nonzero"/></g></g></g></g><g clip-path="url(#0ae829c996)"><g clip-path="url(#479eb608b2)"><g transform="matrix(1, 0, 0, 1, 28, 6)"><g clip-path="url(#b3395832a8)"><g clip-path="url(#bc4e3776f1)"><g clip-path="url(#f41ac28e7e)"><path fill="#b8c8f7" d="M 0.875 0.375 L 100.125 0.375 L 100.125 99.625 L 0.875 99.625 Z M 0.875 0.375 " fill-opacity="1" fill-rule="nonzero"/></g></g></g></g></g></g><g clip-path="url(#c3aff27d07)"><g clip-path="url(#83a83608bc)"><path stroke-linecap="butt" transform="matrix(0.746681, 0, 0, 0.746681, 28.876634, 6.37663)" fill="none" stroke-linejoin="miter" d="M 66.453326 -0.00218258 C 29.75448 -0.00218258 -0.00218834 29.754486 -0.00218834 66.453331 C -0.00218834 103.152177 29.75448 132.908845 66.453326 132.908845 C 103.152171 132.908845 132.90884 103.152177 132.90884 66.453331 C 132.90884 29.754486 103.152171 -0.00218258 66.453326 -0.00218258 Z M 66.453326 -0.00218258 " stroke="#000000" stroke-width="10" stroke-opacity="1" stroke-miterlimit="4"/></g></g><g clip-path="url(#1b43a14ded)"><path fill="#000000" d="M 105.386719 72.972656 L 99.140625 72.972656 L 102.539062 72.355469 C 102.71875 72.320312 102.878906 72.21875 102.980469 72.066406 C 103.085938 71.917969 103.125 71.730469 103.09375 71.550781 L 95.3125 28.929688 C 95.246094 28.554688 94.886719 28.308594 94.511719 28.371094 L 84.5625 30.1875 L 84.5625 25.714844 C 84.5625 25.332031 84.253906 25.023438 83.871094 25.023438 L 74.066406 25.023438 C 73.683594 25.023438 73.375 25.332031 73.375 25.714844 L 73.375 28.0625 L 64.949219 28.0625 L 64.949219 25.714844 C 64.949219 25.332031 64.640625 25.023438 64.257812 25.023438 L 54.453125 25.023438 C 54.070312 25.023438 53.761719 25.332031 53.761719 25.714844 L 53.761719 72.972656 L 51.492188 72.972656 C 51.109375 72.972656 50.800781 73.285156 50.800781 73.664062 L 50.800781 79.585938 C 50.800781 79.96875 51.109375 80.277344 51.492188 80.277344 L 105.386719 80.277344 C 105.765625 80.277344 106.078125 79.96875 106.078125 79.585938 L 106.078125 73.664062 C 106.078125 73.285156 105.765625 72.972656 105.386719 72.972656 Z M 92.3125 72.816406 L 90.875 64.929688 L 100.171875 63.234375 L 101.609375 71.117188 Z M 99.921875 61.875 L 90.625 63.570312 L 89.96875 59.964844 L 99.265625 58.265625 Z M 94.078125 29.855469 L 99.015625 56.90625 L 89.71875 58.605469 L 84.785156 31.550781 Z M 90.9375 72.972656 L 84.5625 72.972656 L 84.5625 38.03125 Z M 74.753906 26.40625 L 83.179688 26.40625 L 83.179688 72.972656 L 74.753906 72.972656 Z M 73.375 29.445312 L 73.375 72.972656 L 64.949219 72.972656 L 64.949219 29.445312 Z M 55.144531 26.40625 L 63.570312 26.40625 L 63.570312 72.972656 L 55.144531 72.972656 Z M 104.695312 78.898438 L 52.183594 78.898438 L 52.183594 74.355469 L 104.695312 74.355469 Z M 104.695312 78.898438 " fill-opacity="1" fill-rule="nonzero"/></g><path fill="#000000" d="M 66.9375 63.957031 L 71.386719 63.957031 C 71.769531 63.957031 72.078125 63.644531 72.078125 63.265625 C 72.078125 62.882812 71.769531 62.574219 71.386719 62.574219 L 66.9375 62.574219 C 66.554688 62.574219 66.246094 62.882812 66.246094 63.265625 C 66.246094 63.644531 66.554688 63.957031 66.9375 63.957031 Z M 66.9375 63.957031 " fill-opacity="1" fill-rule="nonzero"/><path fill="#000000" d="M 66.9375 58.367188 L 71.386719 58.367188 C 71.769531 58.367188 72.078125 58.058594 72.078125 57.675781 C 72.078125 57.296875 71.769531 56.988281 71.386719 56.988281 L 66.9375 56.988281 C 66.554688 56.988281 66.246094 57.296875 66.246094 57.675781 C 66.246094 58.058594 66.554688 58.367188 66.9375 58.367188 Z M 66.9375 58.367188 " fill-opacity="1" fill-rule="nonzero"/><path fill="#000000" d="M 76.742188 37.222656 L 81.195312 37.222656 C 81.578125 37.222656 81.886719 36.914062 81.886719 36.53125 C 81.886719 36.148438 81.578125 35.839844 81.195312 35.839844 L 76.742188 35.839844 C 76.359375 35.839844 76.050781 36.148438 76.050781 36.53125 C 76.050781 36.914062 76.359375 37.222656 76.742188 37.222656 Z M 76.742188 37.222656 " fill-opacity="1" fill-rule="nonzero"/><path fill="#000000" d="M 76.742188 33.203125 L 81.195312 33.203125 C 81.578125 33.203125 81.886719 32.894531 81.886719 32.511719 C 81.886719 32.132812 81.578125 31.820312 81.195312 31.820312 L 76.742188 31.820312 C 76.359375 31.820312 76.050781 32.132812 76.050781 32.511719 C 76.050781 32.894531 76.359375 33.203125 76.742188 33.203125 Z M 76.742188 33.203125 " fill-opacity="1" fill-rule="nonzero"/><path fill="#000000" d="M 61.582031 35.839844 L 57.128906 35.839844 C 56.75 35.839844 56.4375 36.148438 56.4375 36.53125 C 56.4375 36.914062 56.75 37.222656 57.128906 37.222656 L 61.582031 37.222656 C 61.964844 37.222656 62.273438 36.914062 62.273438 36.53125 C 62.273438 36.148438 61.964844 35.839844 61.582031 35.839844 Z M 61.582031 35.839844 " fill-opacity="1" fill-rule="nonzero"/><path fill="#000000" d="M 61.582031 31.820312 L 57.128906 31.820312 C 56.75 31.820312 56.4375 32.132812 56.4375 32.511719 C 56.4375 32.894531 56.75 33.203125 57.128906 33.203125 L 61.582031 33.203125 C 61.964844 33.203125 62.273438 32.894531 62.273438 32.511719 C 62.273438 32.132812 61.964844 31.820312 61.582031 31.820312 Z M 61.582031 31.820312 " fill-opacity="1" fill-rule="nonzero"/><path fill="#000000" d="M 91.742188 46.128906 C 91.875 46.128906 92.007812 46.117188 92.140625 46.09375 C 93.972656 45.757812 94.976562 43.148438 94.429688 40.152344 C 94.183594 38.792969 93.648438 37.558594 92.925781 36.679688 C 92.109375 35.683594 91.140625 35.230469 90.191406 35.40625 C 88.359375 35.738281 87.355469 38.347656 87.902344 41.34375 C 88.148438 42.703125 88.683594 43.9375 89.40625 44.816406 C 90.105469 45.675781 90.921875 46.128906 91.742188 46.128906 Z M 89.257812 41.097656 C 88.832031 38.75 89.539062 36.929688 90.4375 36.765625 C 90.484375 36.757812 90.53125 36.753906 90.578125 36.753906 C 90.976562 36.753906 91.433594 37.039062 91.859375 37.554688 C 92.425781 38.246094 92.867188 39.285156 93.070312 40.402344 C 93.5 42.75 92.792969 44.570312 91.890625 44.734375 C 91.46875 44.808594 90.949219 44.523438 90.472656 43.941406 C 89.90625 43.25 89.464844 42.210938 89.257812 41.097656 Z M 89.257812 41.097656 " fill-opacity="1" fill-rule="nonzero"/></svg>