<svg xmlns="http://www.w3.org/2000/svg" xmlns:xlink="http://www.w3.org/1999/xlink" width="210" zoomAndPan="magnify" viewBox="0 0 157.5 112.499997" height="150" preserveAspectRatio="xMidYMid meet" version="1.0"><defs><clipPath id="c16c0da332"><path d="M 0.0976562 0 L 156.902344 0 L 156.902344 112.003906 L 0.0976562 112.003906 Z M 0.0976562 0 " clip-rule="nonzero"/></clipPath><clipPath id="2c665c260e"><path d="M 0.0976562 0 L 156.902344 0 L 156.902344 112.003906 L 0.0976562 112.003906 Z M 0.0976562 0 " clip-rule="nonzero"/></clipPath><clipPath id="12c8163ddb"><rect x="0" width="157" y="0" height="113"/></clipPath><clipPath id="e7f4ba2083"><path d="M 30.679688 6.375 L 129.925781 6.375 L 129.925781 105.625 L 30.679688 105.625 Z M 30.679688 6.375 " clip-rule="nonzero"/></clipPath><clipPath id="b40f89b5bd"><path d="M 80.304688 6.375 C 52.894531 6.375 30.679688 28.59375 30.679688 56 C 30.679688 83.40625 52.894531 105.625 80.304688 105.625 C 107.710938 105.625 129.925781 83.40625 129.925781 56 C 129.925781 28.59375 107.710938 6.375 80.304688 6.375 Z M 80.304688 6.375 " clip-rule="nonzero"/></clipPath><clipPath id="fc1b96d4e8"><path d="M 0.679688 0.375 L 99.925781 0.375 L 99.925781 99.625 L 0.679688 99.625 Z M 0.679688 0.375 " clip-rule="nonzero"/></clipPath><clipPath id="aecdb0b94e"><path d="M 50.304688 0.375 C 22.894531 0.375 0.679688 22.59375 0.679688 50 C 0.679688 77.40625 22.894531 99.625 50.304688 99.625 C 77.710938 99.625 99.925781 77.40625 99.925781 50 C 99.925781 22.59375 77.710938 0.375 50.304688 0.375 Z M 50.304688 0.375 " clip-rule="nonzero"/></clipPath><clipPath id="7c1d304d50"><rect x="0" width="100" y="0" height="100"/></clipPath><clipPath id="dba49e6166"><path d="M 30.679688 6.375 L 129.917969 6.375 L 129.917969 105.617188 L 30.679688 105.617188 Z M 30.679688 6.375 " clip-rule="nonzero"/></clipPath><clipPath id="49fef46a2a"><path d="M 80.296875 6.375 C 52.894531 6.375 30.679688 28.59375 30.679688 55.996094 C 30.679688 83.398438 52.894531 105.617188 80.296875 105.617188 C 107.703125 105.617188 129.917969 83.398438 129.917969 55.996094 C 129.917969 28.59375 107.703125 6.375 80.296875 6.375 Z M 80.296875 6.375 " clip-rule="nonzero"/></clipPath><clipPath id="1a1e4a0708"><path d="M 45.648438 25.023438 L 112 25.023438 L 112 89.984375 L 45.648438 89.984375 Z M 45.648438 25.023438 " clip-rule="nonzero"/></clipPath></defs><g clip-path="url(#c16c0da332)"><g transform="matrix(1, 0, 0, 1, 0.000000000000000014, 0)"><g clip-path="url(#12c8163ddb)"><g clip-path="url(#2c665c260e)"><path fill="#ebffa8" d="M 0.0976562 0 L 156.890625 0 L 156.890625 135.601562 L 0.0976562 135.601562 Z M 0.0976562 0 " fill-opacity="1" fill-rule="nonzero"/></g></g></g></g><g clip-path="url(#e7f4ba2083)"><g clip-path="url(#b40f89b5bd)"><g transform="matrix(1, 0, 0, 1, 30, 6)"><g clip-path="url(#7c1d304d50)"><g clip-path="url(#fc1b96d4e8)"><g clip-path="url(#aecdb0b94e)"><path fill="#ebffa8" d="M 0.679688 0.375 L 99.925781 0.375 L 99.925781 99.625 L 0.679688 99.625 Z M 0.679688 0.375 " fill-opacity="1" fill-rule="nonzero"/></g></g></g></g></g></g><g clip-path="url(#dba49e6166)"><g clip-path="url(#49fef46a2a)"><path stroke-linecap="butt" transform="matrix(0.746681, 0, 0, 0.746681, 30.678475, 6.376634)" fill="none" stroke-linejoin="miter" d="M 66.451906 -0.00218802 C 29.753061 -0.00218802 0.0016238 29.754481 0.0016238 66.453326 C 0.0016238 103.152171 29.753061 132.90884 66.451906 132.90884 C 103.155983 132.90884 132.90742 103.152171 132.90742 66.453326 C 132.90742 29.754481 103.155983 -0.00218802 66.451906 -0.00218802 Z M 66.451906 -0.00218802 " stroke="#000000" stroke-width="10" stroke-opacity="1" stroke-miterlimit="4"/></g></g><g clip-path="url(#1a1e4a0708)"><path fill="#000000" d="M 109.792969 56.492188 L 95.535156 56.492188 C 95.386719 56.492188 95.246094 56.519531 95.109375 56.574219 C 94.972656 56.632812 94.851562 56.710938 94.746094 56.816406 C 94.640625 56.921875 94.558594 57.042969 94.5 57.179688 C 94.445312 57.316406 94.417969 57.457031 94.417969 57.605469 C 94.417969 58.125 94.390625 58.644531 94.339844 59.164062 C 94.289062 59.683594 94.210938 60.195312 94.109375 60.707031 C 94.007812 61.21875 93.878906 61.722656 93.730469 62.21875 C 93.578125 62.71875 93.402344 63.207031 93.199219 63.691406 C 93 64.171875 92.777344 64.640625 92.53125 65.101562 C 92.28125 65.558594 92.015625 66.003906 91.722656 66.4375 C 91.433594 66.871094 91.121094 67.289062 90.789062 67.691406 C 90.457031 68.09375 90.105469 68.480469 89.738281 68.847656 C 89.367188 69.214844 88.980469 69.566406 88.574219 69.894531 C 88.171875 70.226562 87.75 70.535156 87.316406 70.824219 C 86.878906 71.113281 86.429688 71.382812 85.96875 71.628906 C 85.507812 71.875 85.035156 72.097656 84.550781 72.296875 C 84.070312 72.496094 83.578125 72.667969 83.074219 72.820312 C 82.574219 72.972656 82.066406 73.097656 81.554688 73.199219 C 81.042969 73.300781 80.523438 73.378906 80.003906 73.429688 C 79.484375 73.480469 78.960938 73.503906 78.4375 73.503906 C 77.914062 73.503906 77.390625 73.480469 76.871094 73.429688 C 76.351562 73.378906 75.832031 73.300781 75.320312 73.199219 C 74.804688 73.097656 74.300781 72.972656 73.796875 72.820312 C 73.296875 72.667969 72.804688 72.496094 72.320312 72.296875 C 71.839844 72.097656 71.367188 71.875 70.90625 71.628906 C 70.441406 71.382812 69.996094 71.113281 69.558594 70.824219 C 69.125 70.535156 68.703125 70.226562 68.300781 69.894531 C 67.894531 69.566406 67.507812 69.214844 67.136719 68.847656 C 66.769531 68.480469 66.417969 68.09375 66.085938 67.691406 C 65.753906 67.289062 65.441406 66.871094 65.152344 66.4375 C 64.859375 66.003906 64.589844 65.558594 64.34375 65.101562 C 64.097656 64.640625 63.875 64.171875 63.675781 63.691406 C 63.472656 63.207031 63.296875 62.71875 63.144531 62.21875 C 62.992188 61.722656 62.867188 61.21875 62.765625 60.707031 C 62.664062 60.195312 62.585938 59.683594 62.535156 59.164062 C 62.484375 58.644531 62.457031 58.125 62.457031 57.605469 C 62.457031 57.085938 62.484375 56.566406 62.535156 56.046875 C 62.585938 55.527344 62.664062 55.011719 62.765625 54.503906 C 62.867188 53.992188 62.992188 53.488281 63.144531 52.988281 C 63.296875 52.492188 63.472656 52 63.675781 51.519531 C 63.875 51.039062 64.097656 50.570312 64.34375 50.109375 C 64.589844 49.648438 64.859375 49.203125 65.152344 48.769531 C 65.441406 48.339844 65.753906 47.921875 66.085938 47.519531 C 66.417969 47.113281 66.769531 46.730469 67.136719 46.363281 C 67.507812 45.992188 67.894531 45.644531 68.300781 45.3125 C 68.703125 44.984375 69.125 44.671875 69.558594 44.382812 C 69.996094 44.09375 70.441406 43.828125 70.90625 43.582031 C 71.367188 43.335938 71.839844 43.113281 72.320312 42.914062 C 72.804688 42.714844 73.296875 42.539062 73.796875 42.390625 C 74.300781 42.238281 74.804688 42.113281 75.320312 42.011719 C 75.832031 41.910156 76.351562 41.832031 76.871094 41.78125 C 77.390625 41.730469 77.914062 41.703125 78.4375 41.703125 C 78.585938 41.703125 78.730469 41.675781 78.867188 41.621094 C 79.003906 41.5625 79.125 41.484375 79.230469 41.378906 C 79.335938 41.273438 79.414062 41.152344 79.472656 41.015625 C 79.527344 40.878906 79.558594 40.738281 79.558594 40.589844 L 79.558594 26.40625 C 79.558594 26.257812 79.527344 26.117188 79.472656 25.980469 C 79.414062 25.84375 79.335938 25.722656 79.230469 25.617188 C 79.125 25.511719 79.003906 25.433594 78.867188 25.375 C 78.730469 25.320312 78.585938 25.292969 78.4375 25.292969 L 75.515625 25.292969 C 75 25.289062 74.503906 25.386719 74.027344 25.582031 C 73.550781 25.777344 73.128906 26.054688 72.765625 26.414062 C 72.398438 26.777344 72.117188 27.195312 71.917969 27.667969 C 71.71875 28.140625 71.621094 28.632812 71.617188 29.148438 C 71.625 29.503906 71.523438 29.828125 71.3125 30.117188 C 71.097656 30.40625 70.820312 30.605469 70.476562 30.707031 C 68.546875 31.28125 66.699219 32.046875 64.933594 33.011719 C 64.617188 33.179688 64.28125 33.234375 63.929688 33.175781 C 63.578125 33.121094 63.277344 32.964844 63.027344 32.710938 C 62.664062 32.351562 62.246094 32.074219 61.773438 31.878906 C 61.296875 31.683594 60.804688 31.585938 60.292969 31.585938 C 59.777344 31.585938 59.285156 31.683594 58.808594 31.878906 C 58.335938 32.074219 57.917969 32.351562 57.554688 32.710938 L 53.386719 36.835938 C 53.023438 37.195312 52.742188 37.613281 52.546875 38.085938 C 52.347656 38.558594 52.25 39.054688 52.25 39.566406 C 52.25 40.078125 52.347656 40.570312 52.546875 41.042969 C 52.742188 41.515625 53.023438 41.933594 53.386719 42.296875 C 53.640625 42.542969 53.792969 42.839844 53.847656 43.1875 C 53.902344 43.535156 53.84375 43.867188 53.679688 44.179688 C 52.71875 45.921875 51.953125 47.742188 51.382812 49.648438 C 51.277344 49.984375 51.082031 50.253906 50.796875 50.460938 C 50.511719 50.667969 50.191406 50.765625 49.839844 50.761719 C 49.324219 50.761719 48.828125 50.859375 48.351562 51.054688 C 47.878906 51.25 47.457031 51.527344 47.09375 51.890625 C 46.730469 52.25 46.453125 52.667969 46.253906 53.140625 C 46.058594 53.613281 45.960938 54.105469 45.964844 54.617188 L 45.964844 60.480469 C 45.964844 60.992188 46.0625 61.484375 46.257812 61.953125 C 46.453125 62.425781 46.734375 62.84375 47.097656 63.207031 C 47.460938 63.566406 47.878906 63.847656 48.355469 64.042969 C 48.828125 64.238281 49.324219 64.335938 49.839844 64.335938 C 50.191406 64.332031 50.507812 64.433594 50.792969 64.640625 C 51.078125 64.847656 51.277344 65.117188 51.382812 65.449219 C 51.953125 67.390625 52.71875 69.246094 53.691406 71.019531 C 53.855469 71.335938 53.910156 71.667969 53.855469 72.019531 C 53.796875 72.367188 53.644531 72.667969 53.386719 72.914062 C 53.023438 73.277344 52.746094 73.691406 52.550781 74.164062 C 52.351562 74.636719 52.253906 75.128906 52.253906 75.640625 C 52.253906 76.148438 52.351562 76.640625 52.550781 77.113281 C 52.746094 77.585938 53.023438 78.003906 53.386719 78.363281 L 57.597656 82.53125 C 57.960938 82.894531 58.382812 83.171875 58.855469 83.371094 C 59.332031 83.566406 59.828125 83.664062 60.339844 83.664062 C 60.855469 83.664062 61.351562 83.566406 61.828125 83.371094 C 62.300781 83.171875 62.722656 82.894531 63.085938 82.53125 C 63.335938 82.28125 63.636719 82.128906 63.988281 82.074219 C 64.339844 82.019531 64.671875 82.078125 64.988281 82.242188 C 66.769531 83.210938 68.636719 83.976562 70.585938 84.535156 C 70.921875 84.644531 71.195312 84.839844 71.402344 85.121094 C 71.605469 85.40625 71.710938 85.722656 71.707031 86.074219 C 71.695312 87.144531 72.066406 88.058594 72.828125 88.816406 C 73.585938 89.558594 74.496094 89.933594 75.558594 89.929688 L 81.449219 89.929688 C 81.960938 89.929688 82.457031 89.828125 82.929688 89.632812 C 83.40625 89.4375 83.824219 89.160156 84.1875 88.796875 C 84.550781 88.4375 84.828125 88.019531 85.027344 87.546875 C 85.222656 87.078125 85.324219 86.585938 85.324219 86.074219 C 85.320312 85.722656 85.421875 85.40625 85.628906 85.121094 C 85.835938 84.835938 86.105469 84.640625 86.445312 84.535156 C 88.375 83.96875 90.222656 83.203125 91.988281 82.242188 C 92.300781 82.078125 92.636719 82.023438 92.988281 82.078125 C 93.339844 82.132812 93.640625 82.289062 93.890625 82.542969 C 94.253906 82.902344 94.671875 83.179688 95.148438 83.375 C 95.621094 83.570312 96.113281 83.667969 96.628906 83.667969 C 97.140625 83.667969 97.636719 83.570312 98.109375 83.375 C 98.585938 83.179688 99.003906 82.902344 99.367188 82.542969 L 103.507812 78.386719 C 103.875 78.023438 104.15625 77.605469 104.351562 77.132812 C 104.550781 76.660156 104.648438 76.167969 104.648438 75.65625 C 104.648438 75.144531 104.550781 74.652344 104.351562 74.179688 C 104.15625 73.703125 103.875 73.289062 103.507812 72.925781 C 103.257812 72.675781 103.105469 72.375 103.050781 72.027344 C 102.996094 71.675781 103.054688 71.34375 103.21875 71.03125 C 104.1875 69.273438 104.960938 67.4375 105.535156 65.515625 C 105.640625 65.179688 105.839844 64.910156 106.125 64.703125 C 106.410156 64.5 106.730469 64.398438 107.082031 64.402344 C 108.152344 64.417969 109.070312 64.042969 109.824219 63.289062 C 110.574219 62.535156 110.945312 61.628906 110.945312 60.570312 L 110.945312 57.605469 C 110.945312 57.453125 110.914062 57.308594 110.855469 57.171875 C 110.796875 57.03125 110.714844 56.910156 110.605469 56.804688 C 110.496094 56.699219 110.371094 56.621094 110.230469 56.566406 C 110.089844 56.511719 109.941406 56.484375 109.792969 56.492188 Z M 60.21875 57.605469 C 60.21875 58.1875 60.246094 58.769531 60.300781 59.347656 C 60.355469 59.929688 60.441406 60.503906 60.550781 61.074219 C 60.664062 61.648438 60.804688 62.210938 60.96875 62.769531 C 61.136719 63.328125 61.328125 63.878906 61.546875 64.417969 C 61.769531 64.957031 62.011719 65.484375 62.285156 66.003906 C 62.554688 66.519531 62.847656 67.019531 63.167969 67.507812 C 63.488281 67.996094 63.828125 68.46875 64.195312 68.925781 C 64.558594 69.378906 64.945312 69.816406 65.351562 70.234375 C 65.761719 70.652344 66.1875 71.050781 66.632812 71.425781 C 67.078125 71.804688 67.542969 72.160156 68.023438 72.492188 C 68.503906 72.824219 68.996094 73.136719 69.507812 73.421875 C 70.015625 73.707031 70.539062 73.964844 71.074219 74.203125 C 71.609375 74.4375 72.15625 74.644531 72.710938 74.828125 C 73.269531 75.011719 73.832031 75.167969 74.402344 75.296875 C 74.972656 75.425781 75.546875 75.527344 76.128906 75.601562 C 76.710938 75.675781 77.292969 75.722656 77.878906 75.738281 C 78.460938 75.757812 79.046875 75.746094 79.628906 75.707031 C 80.214844 75.671875 80.796875 75.605469 81.375 75.511719 C 81.949219 75.417969 82.523438 75.296875 83.089844 75.148438 C 83.65625 75 84.210938 74.824219 84.761719 74.621094 C 85.308594 74.417969 85.847656 74.191406 86.375 73.9375 C 86.902344 73.683594 87.414062 73.40625 87.914062 73.101562 C 88.414062 72.800781 88.898438 72.472656 89.367188 72.125 C 89.835938 71.773438 90.285156 71.402344 90.71875 71.011719 C 91.148438 70.617188 91.5625 70.207031 91.953125 69.773438 C 92.347656 69.339844 92.71875 68.890625 93.066406 68.425781 C 93.414062 67.957031 93.742188 67.472656 94.042969 66.972656 C 94.34375 66.476562 94.621094 65.964844 94.875 65.4375 C 95.128906 64.914062 95.351562 64.375 95.554688 63.828125 C 95.753906 63.28125 95.929688 62.726562 96.074219 62.164062 C 96.222656 61.597656 96.339844 61.027344 96.433594 60.453125 C 96.523438 59.878906 96.585938 59.300781 96.621094 58.71875 L 99.679688 58.71875 C 99.644531 59.394531 99.574219 60.070312 99.472656 60.738281 C 99.371094 61.410156 99.234375 62.070312 99.070312 62.730469 C 98.90625 63.386719 98.707031 64.035156 98.480469 64.671875 C 98.25 65.308594 97.992188 65.9375 97.703125 66.550781 C 97.414062 67.164062 97.097656 67.761719 96.75 68.34375 C 96.40625 68.925781 96.03125 69.492188 95.632812 70.039062 C 95.230469 70.589844 94.804688 71.113281 94.351562 71.621094 C 93.898438 72.128906 93.425781 72.613281 92.925781 73.074219 C 92.429688 73.535156 91.910156 73.972656 91.367188 74.382812 C 90.828125 74.796875 90.269531 75.179688 89.691406 75.539062 C 89.113281 75.898438 88.519531 76.226562 87.910156 76.53125 C 87.300781 76.832031 86.679688 77.101562 86.042969 77.34375 C 85.40625 77.585938 84.761719 77.800781 84.105469 77.980469 C 83.449219 78.160156 82.785156 78.308594 82.113281 78.425781 C 81.445312 78.542969 80.769531 78.628906 80.089844 78.679688 C 79.410156 78.734375 78.730469 78.753906 78.050781 78.742188 C 77.371094 78.730469 76.691406 78.683594 76.015625 78.609375 C 75.339844 78.53125 74.667969 78.421875 74.003906 78.28125 C 73.335938 78.140625 72.679688 77.964844 72.03125 77.761719 C 71.378906 77.558594 70.742188 77.324219 70.117188 77.058594 C 69.488281 76.792969 68.875 76.5 68.277344 76.175781 C 67.679688 75.855469 67.097656 75.503906 66.535156 75.125 C 65.96875 74.746094 65.425781 74.339844 64.902344 73.910156 C 64.375 73.476562 63.871094 73.023438 63.390625 72.542969 C 62.910156 72.066406 62.453125 71.5625 62.019531 71.042969 C 61.585938 70.519531 61.179688 69.976562 60.796875 69.414062 C 60.417969 68.855469 60.0625 68.273438 59.738281 67.679688 C 59.414062 67.085938 59.117188 66.476562 58.851562 65.851562 C 58.585938 65.226562 58.351562 64.59375 58.144531 63.949219 C 57.941406 63.300781 57.769531 62.648438 57.625 61.984375 C 57.484375 61.320312 57.375 60.65625 57.296875 59.980469 C 57.21875 59.308594 57.175781 58.632812 57.164062 57.957031 C 57.148438 57.277344 57.171875 56.601562 57.222656 55.925781 C 57.277344 55.25 57.363281 54.582031 57.480469 53.914062 C 57.597656 53.246094 57.746094 52.585938 57.929688 51.933594 C 58.109375 51.28125 58.320312 50.636719 58.566406 50.003906 C 58.808594 49.371094 59.082031 48.753906 59.386719 48.144531 C 59.6875 47.539062 60.019531 46.949219 60.378906 46.375 C 60.742188 45.796875 61.128906 45.242188 61.542969 44.703125 C 61.953125 44.167969 62.394531 43.648438 62.859375 43.152344 C 63.320312 42.65625 63.808594 42.183594 64.316406 41.734375 C 64.828125 41.285156 65.355469 40.863281 65.90625 40.460938 C 66.457031 40.0625 67.023438 39.691406 67.609375 39.347656 C 68.195312 39.003906 68.796875 38.6875 69.414062 38.398438 C 70.03125 38.113281 70.660156 37.855469 71.300781 37.628906 C 71.941406 37.402344 72.59375 37.207031 73.253906 37.039062 C 73.914062 36.875 74.582031 36.742188 75.253906 36.640625 C 75.925781 36.539062 76.605469 36.46875 77.285156 36.433594 L 77.285156 39.507812 C 76.140625 39.582031 75.011719 39.761719 73.898438 40.046875 C 72.789062 40.332031 71.714844 40.71875 70.675781 41.207031 C 69.636719 41.695312 68.65625 42.273438 67.726562 42.945312 C 66.800781 43.617188 65.941406 44.371094 65.15625 45.203125 C 64.371094 46.035156 63.671875 46.933594 63.058594 47.898438 C 62.441406 48.859375 61.925781 49.875 61.5 50.933594 C 61.078125 51.996094 60.757812 53.089844 60.542969 54.210938 C 60.328125 55.332031 60.21875 56.464844 60.21875 57.605469 Z M 108.671875 60.535156 C 108.65625 60.972656 108.492188 61.34375 108.179688 61.648438 C 107.871094 61.960938 107.496094 62.117188 107.058594 62.117188 C 106.644531 62.117188 106.242188 62.179688 105.847656 62.308594 C 105.453125 62.441406 105.089844 62.628906 104.757812 62.875 C 104.421875 63.117188 104.136719 63.410156 103.898438 63.75 C 103.660156 64.085938 103.484375 64.453125 103.363281 64.847656 C 102.851562 66.628906 102.152344 68.332031 101.269531 69.960938 C 101.070312 70.328125 100.9375 70.714844 100.867188 71.121094 C 100.792969 71.53125 100.789062 71.9375 100.851562 72.347656 C 100.910156 72.757812 101.035156 73.148438 101.226562 73.515625 C 101.414062 73.886719 101.65625 74.21875 101.953125 74.507812 C 102.105469 74.660156 102.222656 74.839844 102.304688 75.039062 C 102.390625 75.238281 102.429688 75.445312 102.429688 75.660156 C 102.429688 75.878906 102.390625 76.085938 102.304688 76.285156 C 102.222656 76.484375 102.105469 76.660156 101.953125 76.816406 L 97.730469 80.960938 C 97.574219 81.113281 97.398438 81.230469 97.195312 81.3125 C 96.996094 81.394531 96.785156 81.4375 96.566406 81.4375 C 96.347656 81.4375 96.140625 81.394531 95.9375 81.3125 C 95.734375 81.230469 95.558594 81.113281 95.402344 80.960938 C 95.109375 80.667969 94.78125 80.425781 94.410156 80.242188 C 94.039062 80.054688 93.652344 79.933594 93.242188 79.871094 C 92.832031 79.8125 92.421875 79.816406 92.015625 79.890625 C 91.605469 79.960938 91.21875 80.09375 90.855469 80.292969 C 89.230469 81.167969 87.53125 81.867188 85.761719 82.398438 C 85.363281 82.515625 84.996094 82.695312 84.65625 82.929688 C 84.316406 83.167969 84.023438 83.453125 83.777344 83.78125 C 83.527344 84.113281 83.339844 84.476562 83.210938 84.867188 C 83.082031 85.257812 83.015625 85.660156 83.015625 86.074219 C 83.015625 86.289062 82.976562 86.496094 82.894531 86.695312 C 82.808594 86.894531 82.691406 87.070312 82.539062 87.222656 C 82.386719 87.378906 82.207031 87.496094 82.007812 87.578125 C 81.808594 87.660156 81.597656 87.699219 81.382812 87.699219 L 75.515625 87.699219 C 75.078125 87.691406 74.703125 87.53125 74.394531 87.222656 C 74.085938 86.914062 73.929688 86.542969 73.925781 86.109375 C 73.925781 85.695312 73.859375 85.292969 73.730469 84.902344 C 73.597656 84.511719 73.410156 84.148438 73.164062 83.816406 C 72.917969 83.488281 72.625 83.203125 72.285156 82.964844 C 71.945312 82.726562 71.578125 82.550781 71.179688 82.429688 C 69.410156 81.90625 67.710938 81.203125 66.085938 80.324219 C 65.523438 80.011719 64.917969 79.855469 64.273438 79.855469 C 63.199219 79.847656 62.28125 80.21875 61.515625 80.972656 C 61.363281 81.121094 61.1875 81.238281 60.984375 81.324219 C 60.785156 81.40625 60.574219 81.445312 60.359375 81.445312 C 60.140625 81.445312 59.933594 81.40625 59.730469 81.324219 C 59.53125 81.238281 59.351562 81.121094 59.199219 80.972656 L 55.035156 76.824219 C 54.878906 76.671875 54.761719 76.496094 54.675781 76.292969 C 54.59375 76.09375 54.550781 75.882812 54.550781 75.667969 C 54.550781 75.449219 54.59375 75.242188 54.675781 75.039062 C 54.761719 74.839844 54.878906 74.660156 55.035156 74.507812 C 55.328125 74.21875 55.570312 73.886719 55.757812 73.519531 C 55.945312 73.148438 56.066406 72.761719 56.128906 72.351562 C 56.1875 71.941406 56.183594 71.535156 56.109375 71.128906 C 56.039062 70.722656 55.902344 70.335938 55.707031 69.972656 C 54.816406 68.359375 54.113281 66.667969 53.589844 64.902344 C 53.46875 64.507812 53.289062 64.144531 53.050781 63.804688 C 52.8125 63.46875 52.527344 63.175781 52.195312 62.929688 C 51.863281 62.683594 51.5 62.496094 51.105469 62.367188 C 50.710938 62.238281 50.308594 62.171875 49.894531 62.171875 C 49.675781 62.171875 49.46875 62.132812 49.269531 62.050781 C 49.066406 61.96875 48.890625 61.847656 48.738281 61.695312 C 48.585938 61.542969 48.464844 61.367188 48.382812 61.167969 C 48.300781 60.96875 48.257812 60.761719 48.257812 60.546875 L 48.257812 54.675781 C 48.273438 54.242188 48.433594 53.867188 48.742188 53.558594 C 49.050781 53.25 49.421875 53.097656 49.859375 53.09375 C 50.273438 53.09375 50.675781 53.03125 51.070312 52.902344 C 51.460938 52.773438 51.824219 52.585938 52.15625 52.34375 C 52.488281 52.097656 52.773438 51.804688 53.011719 51.46875 C 53.25 51.132812 53.425781 50.765625 53.542969 50.375 C 54.074219 48.609375 54.78125 46.917969 55.671875 45.304688 C 55.871094 44.9375 56.007812 44.546875 56.078125 44.136719 C 56.148438 43.726562 56.152344 43.3125 56.089844 42.902344 C 56.027344 42.488281 55.898438 42.097656 55.707031 41.726562 C 55.511719 41.355469 55.265625 41.027344 54.964844 40.734375 C 54.8125 40.582031 54.695312 40.40625 54.613281 40.207031 C 54.53125 40.003906 54.488281 39.796875 54.488281 39.582031 C 54.488281 39.367188 54.53125 39.15625 54.613281 38.957031 C 54.695312 38.757812 54.8125 38.582031 54.964844 38.429688 L 59.132812 34.285156 C 59.285156 34.128906 59.464844 34.011719 59.667969 33.929688 C 59.867188 33.84375 60.078125 33.804688 60.296875 33.804688 C 60.515625 33.804688 60.726562 33.84375 60.925781 33.929688 C 61.128906 34.011719 61.308594 34.128906 61.460938 34.285156 C 61.753906 34.578125 62.085938 34.816406 62.457031 35.003906 C 62.828125 35.191406 63.21875 35.3125 63.628906 35.375 C 64.039062 35.433594 64.449219 35.425781 64.859375 35.355469 C 65.265625 35.285156 65.652344 35.148438 66.019531 34.953125 C 67.640625 34.066406 69.339844 33.359375 71.113281 32.835938 C 71.511719 32.714844 71.878906 32.539062 72.21875 32.300781 C 72.558594 32.0625 72.851562 31.78125 73.097656 31.449219 C 73.34375 31.117188 73.535156 30.757812 73.664062 30.363281 C 73.792969 29.972656 73.859375 29.570312 73.855469 29.15625 C 73.855469 28.9375 73.898438 28.730469 73.980469 28.527344 C 74.0625 28.324219 74.183594 28.144531 74.339844 27.992188 C 74.496094 27.839844 74.675781 27.71875 74.878906 27.636719 C 75.082031 27.554688 75.296875 27.515625 75.515625 27.519531 L 77.339844 27.519531 L 77.339844 34.261719 C 76.585938 34.296875 75.835938 34.371094 75.089844 34.480469 C 74.34375 34.585938 73.605469 34.730469 72.871094 34.910156 C 72.140625 35.089844 71.417969 35.304688 70.707031 35.550781 C 69.996094 35.800781 69.296875 36.082031 68.613281 36.398438 C 67.929688 36.710938 67.261719 37.058594 66.609375 37.4375 C 65.957031 37.816406 65.328125 38.226562 64.714844 38.664062 C 64.105469 39.105469 63.515625 39.574219 62.949219 40.070312 C 62.382812 40.566406 61.84375 41.085938 61.328125 41.632812 C 60.8125 42.183594 60.324219 42.753906 59.863281 43.347656 C 59.402344 43.941406 58.972656 44.554688 58.570312 45.191406 C 58.171875 45.828125 57.800781 46.480469 57.464844 47.152344 C 57.125 47.824219 56.820312 48.507812 56.550781 49.207031 C 56.277344 49.910156 56.039062 50.621094 55.835938 51.34375 C 55.636719 52.066406 55.46875 52.796875 55.335938 53.535156 C 55.203125 54.273438 55.105469 55.019531 55.046875 55.765625 C 54.988281 56.515625 54.964844 57.261719 54.976562 58.011719 C 54.988281 58.765625 55.035156 59.511719 55.121094 60.257812 C 55.207031 61.003906 55.324219 61.742188 55.480469 62.476562 C 55.636719 63.210938 55.828125 63.9375 56.054688 64.652344 C 56.28125 65.367188 56.542969 66.070312 56.835938 66.761719 C 57.128906 67.453125 57.457031 68.128906 57.816406 68.789062 C 58.175781 69.449219 58.566406 70.089844 58.988281 70.710938 C 59.410156 71.335938 59.859375 71.933594 60.339844 72.515625 C 60.820312 73.09375 61.328125 73.648438 61.859375 74.179688 C 62.394531 74.710938 62.949219 75.214844 63.53125 75.691406 C 64.113281 76.167969 64.71875 76.617188 65.34375 77.035156 C 65.96875 77.453125 66.613281 77.84375 67.277344 78.203125 C 67.9375 78.558594 68.617188 78.882812 69.3125 79.175781 C 70.007812 79.46875 70.714844 79.730469 71.433594 79.953125 C 72.152344 80.179688 72.882812 80.371094 73.617188 80.523438 C 74.355469 80.679688 75.101562 80.800781 75.851562 80.882812 C 76.597656 80.96875 77.351562 81.015625 78.105469 81.027344 C 78.859375 81.042969 79.613281 81.015625 80.363281 80.957031 C 81.117188 80.898438 81.863281 80.800781 82.605469 80.671875 C 83.347656 80.539062 84.082031 80.371094 84.808594 80.171875 C 85.535156 79.96875 86.25 79.734375 86.953125 79.464844 C 87.65625 79.191406 88.347656 78.890625 89.019531 78.554688 C 89.695312 78.21875 90.351562 77.851562 90.988281 77.449219 C 91.628906 77.050781 92.246094 76.625 92.84375 76.164062 C 93.441406 75.707031 94.015625 75.222656 94.566406 74.707031 C 95.117188 74.195312 95.640625 73.65625 96.140625 73.09375 C 96.636719 72.53125 97.105469 71.945312 97.546875 71.335938 C 97.992188 70.726562 98.402344 70.101562 98.78125 69.453125 C 99.164062 68.804688 99.511719 68.140625 99.828125 67.460938 C 100.144531 66.777344 100.429688 66.082031 100.679688 65.375 C 100.929688 64.667969 101.144531 63.949219 101.324219 63.21875 C 101.503906 62.492188 101.648438 61.753906 101.757812 61.011719 C 101.867188 60.269531 101.9375 59.523438 101.976562 58.773438 L 108.695312 58.773438 Z M 70.21875 50.074219 C 69.558594 50.722656 68.996094 51.445312 68.523438 52.242188 C 68.054688 53.035156 67.695312 53.878906 67.445312 54.765625 C 67.195312 55.65625 67.066406 56.5625 67.054688 57.484375 C 67.042969 58.40625 67.148438 59.316406 67.375 60.210938 C 67.394531 60.304688 67.429688 60.394531 67.476562 60.480469 C 67.519531 60.5625 67.578125 60.640625 67.640625 60.710938 C 67.707031 60.78125 67.78125 60.839844 67.863281 60.894531 C 67.945312 60.945312 68.03125 60.984375 68.121094 61.015625 C 68.214844 61.042969 68.308594 61.058594 68.402344 61.066406 C 68.5 61.070312 68.59375 61.0625 68.691406 61.042969 C 68.785156 61.023438 68.875 60.992188 68.960938 60.949219 C 69.046875 60.90625 69.125 60.855469 69.199219 60.792969 L 75.378906 55.453125 L 78.539062 57.015625 L 80.050781 60.191406 L 74.6875 66.242188 C 74.621094 66.3125 74.570312 66.390625 74.527344 66.476562 C 74.484375 66.5625 74.453125 66.652344 74.433594 66.746094 C 74.414062 66.839844 74.40625 66.933594 74.410156 67.027344 C 74.414062 67.125 74.429688 67.21875 74.457031 67.308594 C 74.488281 67.398438 74.527344 67.484375 74.578125 67.566406 C 74.628906 67.648438 74.691406 67.722656 74.757812 67.785156 C 74.828125 67.851562 74.90625 67.90625 74.992188 67.953125 C 75.074219 68 75.164062 68.035156 75.257812 68.058594 C 76.117188 68.265625 76.992188 68.371094 77.878906 68.367188 C 78.28125 68.367188 78.683594 68.34375 79.085938 68.300781 C 79.484375 68.253906 79.882812 68.183594 80.277344 68.09375 C 80.667969 68.003906 81.058594 67.890625 81.4375 67.757812 C 81.816406 67.625 82.191406 67.472656 82.554688 67.296875 C 82.917969 67.121094 83.269531 66.925781 83.609375 66.710938 C 83.953125 66.496094 84.28125 66.261719 84.59375 66.011719 C 84.910156 65.757812 85.207031 65.492188 85.492188 65.207031 C 85.777344 64.921875 86.046875 64.621094 86.296875 64.304688 C 86.546875 63.992188 86.777344 63.664062 86.992188 63.324219 C 87.207031 62.980469 87.398438 62.628906 87.574219 62.265625 C 87.746094 61.902344 87.898438 61.53125 88.03125 61.152344 C 88.164062 60.773438 88.273438 60.386719 88.359375 59.996094 C 88.449219 59.601562 88.515625 59.207031 88.558594 58.808594 C 88.601562 58.410156 88.621094 58.007812 88.621094 57.605469 C 88.617188 57.203125 88.59375 56.804688 88.546875 56.40625 C 88.496094 56.007812 88.429688 55.613281 88.335938 55.21875 L 110.128906 34.652344 C 110.523438 34.253906 110.855469 33.808594 111.117188 33.3125 C 111.382812 32.820312 111.570312 32.296875 111.679688 31.75 C 111.789062 31.199219 111.8125 30.648438 111.757812 30.089844 C 111.703125 29.53125 111.566406 28.996094 111.351562 28.476562 C 111.136719 27.960938 110.851562 27.484375 110.492188 27.054688 C 110.136719 26.621094 109.722656 26.25 109.257812 25.9375 C 108.789062 25.625 108.285156 25.386719 107.746094 25.226562 C 107.210938 25.0625 106.660156 24.980469 106.097656 24.980469 C 105.347656 24.976562 104.625 25.113281 103.933594 25.398438 C 103.238281 25.683594 102.628906 26.089844 102.097656 26.617188 L 80.296875 47.207031 C 79.402344 47 78.5 46.90625 77.582031 46.925781 C 76.664062 46.949219 75.765625 47.082031 74.882812 47.335938 C 74 47.585938 73.164062 47.941406 72.375 48.40625 C 71.582031 48.871094 70.863281 49.425781 70.21875 50.074219 Z M 80.296875 49.515625 C 80.722656 49.652344 81.09375 49.566406 81.414062 49.257812 L 103.65625 28.210938 C 103.984375 27.898438 104.359375 27.65625 104.78125 27.488281 C 105.203125 27.320312 105.640625 27.234375 106.097656 27.234375 C 106.550781 27.234375 106.988281 27.320312 107.410156 27.488281 C 107.832031 27.65625 108.207031 27.898438 108.539062 28.210938 C 108.859375 28.53125 109.109375 28.902344 109.28125 29.320312 C 109.457031 29.738281 109.542969 30.175781 109.542969 30.628906 C 109.542969 31.082031 109.457031 31.519531 109.28125 31.9375 C 109.109375 32.355469 108.859375 32.726562 108.539062 33.046875 L 86.308594 54.105469 C 85.984375 54.417969 85.882812 54.789062 86.007812 55.21875 C 86.101562 55.539062 86.179688 55.859375 86.234375 56.1875 C 86.292969 56.511719 86.332031 56.839844 86.351562 57.171875 C 86.367188 57.5 86.367188 57.832031 86.347656 58.164062 C 86.328125 58.492188 86.289062 58.820312 86.230469 59.148438 C 86.171875 59.472656 86.09375 59.792969 85.996094 60.113281 C 85.902344 60.429688 85.785156 60.738281 85.652344 61.042969 C 85.519531 61.347656 85.371094 61.640625 85.203125 61.925781 C 85.035156 62.214844 84.851562 62.488281 84.652344 62.753906 C 84.449219 63.019531 84.234375 63.269531 84.007812 63.507812 C 83.777344 63.75 83.535156 63.976562 83.277344 64.1875 C 83.019531 64.398438 82.753906 64.59375 82.472656 64.773438 C 82.195312 64.953125 81.90625 65.117188 81.609375 65.261719 C 81.308594 65.410156 81.003906 65.539062 80.691406 65.648438 C 80.375 65.761719 80.058594 65.851562 79.734375 65.925781 C 79.410156 66 79.082031 66.054688 78.75 66.089844 C 78.417969 66.125 78.085938 66.144531 77.753906 66.140625 L 82.234375 61.113281 C 82.382812 60.949219 82.472656 60.753906 82.507812 60.535156 C 82.539062 60.3125 82.507812 60.101562 82.414062 59.898438 L 80.417969 55.710938 C 80.296875 55.484375 80.117188 55.324219 79.882812 55.21875 L 75.703125 53.171875 C 75.503906 53.070312 75.289062 53.035156 75.066406 53.0625 C 74.839844 53.089844 74.644531 53.179688 74.472656 53.324219 L 69.300781 57.78125 C 69.296875 57.449219 69.3125 57.121094 69.347656 56.789062 C 69.382812 56.457031 69.433594 56.132812 69.507812 55.808594 C 69.582031 55.484375 69.675781 55.164062 69.785156 54.851562 C 69.898438 54.539062 70.027344 54.230469 70.171875 53.933594 C 70.320312 53.636719 70.484375 53.347656 70.667969 53.066406 C 70.847656 52.789062 71.042969 52.523438 71.257812 52.265625 C 71.46875 52.007812 71.699219 51.765625 71.9375 51.539062 C 72.179688 51.308594 72.433594 51.09375 72.703125 50.894531 C 72.96875 50.695312 73.246094 50.511719 73.535156 50.34375 C 73.824219 50.175781 74.121094 50.027344 74.425781 49.894531 C 74.730469 49.761719 75.046875 49.644531 75.363281 49.550781 C 75.683594 49.453125 76.007812 49.375 76.335938 49.316406 C 76.664062 49.261719 76.996094 49.222656 77.332031 49.203125 C 77.664062 49.183594 77.996094 49.183594 78.332031 49.203125 C 78.664062 49.222656 78.996094 49.257812 79.324219 49.316406 C 79.652344 49.375 79.976562 49.453125 80.296875 49.546875 Z M 80.296875 49.515625 " fill-opacity="1" fill-rule="nonzero"/></g></svg>