<svg xmlns="http://www.w3.org/2000/svg" xmlns:xlink="http://www.w3.org/1999/xlink" width="512" zoomAndPan="magnify" viewBox="0 0 384 383.999986" height="512" preserveAspectRatio="xMidYMid meet" version="1.0"><defs><clipPath id="cd4a6faed9"><path d="M 25.21875 25.21875 L 358.96875 25.21875 L 358.96875 358.96875 L 25.21875 358.96875 Z M 25.21875 25.21875 " clip-rule="nonzero"/></clipPath><clipPath id="cc0237f607"><path d="M 43.484375 43.484375 L 341.984375 43.484375 L 341.984375 341.984375 L 43.484375 341.984375 Z M 43.484375 43.484375 " clip-rule="nonzero"/></clipPath><clipPath id="a9826ce73e"><path d="M 143.417969 163 L 246.917969 163 L 246.917969 179 L 143.417969 179 Z M 143.417969 163 " clip-rule="nonzero"/></clipPath><clipPath id="d745381acb"><path d="M 182 199 L 209 199 L 209 236.914062 L 182 236.914062 Z M 182 199 " clip-rule="nonzero"/></clipPath><clipPath id="dfe3c96a09"><path d="M 143.417969 182 L 246.917969 182 L 246.917969 236.914062 L 143.417969 236.914062 Z M 143.417969 182 " clip-rule="nonzero"/></clipPath><clipPath id="ff331d38b6"><path d="M 165 133.414062 L 225 133.414062 L 225 160 L 165 160 Z M 165 133.414062 " clip-rule="nonzero"/></clipPath><clipPath id="c68e84fed1"><path d="M 240.53125 105 L 325 105 L 325 281 L 240.53125 281 Z M 240.53125 105 " clip-rule="nonzero"/></clipPath><clipPath id="ff165ce756"><path d="M 67 104 L 143.792969 104 L 143.792969 280.425781 L 67 280.425781 Z M 67 104 " clip-rule="nonzero"/></clipPath></defs><g clip-path="url(#cd4a6faed9)"><path fill="#004aad" d="M 132.332031 347.703125 C 111.550781 339.757812 92.601562 327.835938 76.40625 312.253906 C 60.207031 296.667969 47.527344 278.332031 38.664062 257.855469 C 30.105469 237.992188 25.675781 217.058594 25.21875 195.359375 C 24.757812 173.664062 28.425781 152.578125 36.21875 132.40625 C 44.164062 111.625 56.082031 92.679688 71.667969 76.480469 C 87.253906 60.285156 105.589844 47.601562 126.066406 38.738281 C 145.929688 30.183594 166.863281 25.753906 188.5625 25.292969 C 210.257812 24.835938 231.34375 28.503906 251.515625 36.296875 C 272.296875 44.242188 291.242188 56.160156 307.4375 71.746094 C 323.636719 87.332031 336.316406 105.667969 345.179688 126.140625 C 353.738281 146.003906 358.167969 166.9375 358.628906 188.636719 C 359.085938 210.335938 355.417969 231.421875 347.625 251.589844 C 339.679688 272.371094 327.761719 291.320312 312.175781 307.515625 C 296.589844 323.710938 278.253906 336.394531 257.777344 345.257812 C 237.914062 353.8125 216.980469 358.246094 195.285156 358.703125 C 194.0625 358.703125 192.992188 358.703125 191.769531 358.703125 C 171.292969 358.703125 151.277344 355.035156 132.332031 347.703125 Z M 188.867188 43.78125 C 149.292969 44.546875 112.3125 60.742188 84.960938 89.316406 C 57.609375 117.890625 42.941406 155.480469 43.707031 195.054688 C 44.46875 234.628906 60.667969 271.609375 89.242188 298.957031 C 117.050781 325.699219 153.417969 340.214844 191.921875 340.214844 C 192.992188 340.214844 193.910156 340.214844 194.976562 340.214844 C 234.554688 339.449219 271.53125 323.253906 298.882812 294.679688 C 326.234375 266.105469 340.902344 228.519531 340.136719 188.941406 C 339.375 149.367188 323.175781 112.390625 294.605469 85.039062 C 266.792969 58.296875 230.429688 43.78125 191.921875 43.78125 C 153.417969 43.78125 189.9375 43.78125 188.867188 43.78125 Z M 188.867188 43.78125 " fill-opacity="1" fill-rule="nonzero"/></g><g clip-path="url(#cc0237f607)"><path fill="#ffd60a" d="M 192.589844 43.484375 C 110.207031 43.484375 43.484375 110.207031 43.484375 192.589844 C 43.484375 274.96875 110.207031 341.691406 192.589844 341.691406 C 274.96875 341.691406 341.691406 274.96875 341.691406 192.589844 C 341.691406 110.207031 274.96875 43.484375 192.589844 43.484375 Z M 192.589844 43.484375 " fill-opacity="1" fill-rule="nonzero"/></g><g clip-path="url(#a9826ce73e)"><path fill="#000000" d="M 241.074219 163.929688 L 149.523438 163.929688 C 146.152344 163.929688 143.417969 166.664062 143.417969 170.035156 L 143.417969 178.171875 L 153.589844 178.171875 L 153.589844 177.15625 C 153.589844 173.226562 156.785156 170.035156 160.710938 170.035156 C 164.636719 170.035156 167.832031 173.226562 167.832031 177.15625 L 167.832031 178.171875 L 222.761719 178.171875 L 222.761719 177.15625 C 222.761719 173.226562 225.957031 170.035156 229.882812 170.035156 C 233.808594 170.035156 237.003906 173.226562 237.003906 177.15625 L 237.003906 178.171875 L 247.175781 178.171875 L 247.175781 170.035156 C 247.175781 166.664062 244.445312 163.929688 241.074219 163.929688 Z M 241.074219 163.929688 " fill-opacity="1" fill-rule="nonzero"/></g><path fill="#000000" d="M 160.710938 174.101562 C 159.027344 174.101562 157.660156 175.472656 157.660156 177.15625 L 157.660156 186.308594 L 163.761719 186.308594 L 163.761719 177.15625 C 163.761719 175.472656 162.394531 174.101562 160.710938 174.101562 Z M 160.710938 174.101562 " fill-opacity="1" fill-rule="nonzero"/><path fill="#000000" d="M 229.882812 174.101562 C 228.199219 174.101562 226.832031 175.472656 226.832031 177.15625 L 226.832031 186.308594 L 232.933594 186.308594 L 232.933594 177.15625 C 232.933594 175.472656 231.566406 174.101562 229.882812 174.101562 Z M 229.882812 174.101562 " fill-opacity="1" fill-rule="nonzero"/><g clip-path="url(#d745381acb)"><path fill="#000000" d="M 208.523438 201.929688 L 202.417969 199.488281 L 202.417969 210.722656 C 202.417969 211.847656 201.507812 212.757812 200.382812 212.757812 L 190.210938 212.757812 C 189.089844 212.757812 188.175781 211.847656 188.175781 210.722656 L 188.175781 199.488281 L 182.074219 201.929688 L 182.074219 214.027344 L 188.691406 221.589844 C 189.015625 221.960938 189.195312 222.4375 189.195312 222.929688 L 189.195312 237.171875 L 201.402344 237.171875 L 201.402344 222.929688 C 201.402344 222.4375 201.578125 221.960938 201.90625 221.589844 L 208.523438 214.027344 Z M 208.523438 201.929688 " fill-opacity="1" fill-rule="nonzero"/></g><g clip-path="url(#dfe3c96a09)"><path fill="#000000" d="M 237.003906 188.34375 C 237.003906 189.46875 236.09375 190.378906 234.96875 190.378906 L 224.796875 190.378906 C 223.675781 190.378906 222.761719 189.46875 222.761719 188.34375 L 222.761719 182.242188 L 167.832031 182.242188 L 167.832031 188.34375 C 167.832031 189.46875 166.921875 190.378906 165.796875 190.378906 L 155.625 190.378906 C 154.503906 190.378906 153.589844 189.46875 153.589844 188.34375 L 153.589844 182.242188 L 143.417969 182.242188 L 143.417969 231.066406 C 143.417969 234.4375 146.152344 237.171875 149.523438 237.171875 L 185.125 237.171875 L 185.125 223.695312 L 178.507812 216.132812 C 178.183594 215.761719 178.003906 215.285156 178.003906 214.792969 L 178.003906 200.550781 C 178.003906 199.71875 178.511719 198.96875 179.285156 198.660156 L 189.457031 194.59375 C 190.789062 194.058594 192.246094 195.042969 192.246094 196.480469 L 192.246094 208.6875 L 198.347656 208.6875 L 198.347656 196.480469 C 198.347656 195.042969 199.804688 194.058594 201.140625 194.59375 L 211.3125 198.660156 C 212.085938 198.972656 212.589844 199.71875 212.589844 200.550781 L 212.589844 214.792969 C 212.589844 215.285156 212.410156 215.761719 212.085938 216.132812 L 205.46875 223.695312 L 205.46875 237.171875 L 241.074219 237.171875 C 244.445312 237.171875 247.175781 234.4375 247.175781 231.066406 L 247.175781 182.242188 L 237.003906 182.242188 Z M 237.003906 188.34375 " fill-opacity="1" fill-rule="nonzero"/></g><g clip-path="url(#ff331d38b6)"><path fill="#000000" d="M 176.847656 141.550781 L 213.746094 141.550781 L 216.660156 159.863281 L 224.796875 159.863281 L 221.523438 138.589844 C 221.066406 135.609375 218.503906 133.414062 215.492188 133.414062 L 175.105469 133.414062 C 172.089844 133.414062 169.527344 135.609375 169.070312 138.589844 L 165.796875 159.863281 L 173.9375 159.863281 Z M 176.847656 141.550781 " fill-opacity="1" fill-rule="nonzero"/></g><g clip-path="url(#c68e84fed1)"><path fill="#000000" d="M 109.679688 251.75 C 107.183594 251.75 104.6875 250.796875 102.78125 248.890625 L 53.976562 200.140625 C 50.164062 196.332031 50.164062 190.160156 53.976562 186.351562 L 102.78125 137.601562 C 106.589844 133.792969 112.769531 133.792969 116.582031 137.601562 C 120.394531 141.40625 120.394531 147.578125 116.582031 151.386719 L 74.679688 193.246094 L 116.582031 235.105469 C 120.394531 238.910156 120.394531 245.082031 116.582031 248.890625 C 114.671875 250.796875 112.179688 251.75 109.679688 251.75 Z M 158.484375 281 C 157.347656 281 156.183594 280.800781 155.058594 280.375 C 150.011719 278.484375 147.449219 272.863281 149.34375 267.820312 L 207.90625 111.816406 C 209.804688 106.769531 215.425781 104.21875 220.472656 106.113281 C 225.519531 108.003906 228.082031 113.625 226.1875 118.664062 L 167.625 274.671875 C 166.152344 278.585938 162.4375 281 158.484375 281 Z M 265.851562 251.75 C 263.351562 251.75 260.859375 250.796875 258.949219 248.890625 C 255.136719 245.082031 255.136719 238.910156 258.949219 235.105469 L 300.851562 193.246094 L 258.949219 151.386719 C 255.136719 147.578125 255.136719 141.40625 258.949219 137.601562 C 262.761719 133.792969 268.941406 133.792969 272.75 137.601562 L 321.554688 186.351562 C 325.367188 190.160156 325.367188 196.332031 321.554688 200.140625 L 272.75 248.890625 C 270.84375 250.796875 268.347656 251.75 265.851562 251.75 Z M 265.851562 251.75 " fill-opacity="1" fill-rule="nonzero"/></g><g clip-path="url(#ff165ce756)"><path fill="#000000" d="M 126.082031 251.160156 C 123.585938 251.160156 121.089844 250.207031 119.183594 248.300781 L 70.378906 199.550781 C 66.566406 195.742188 66.566406 189.570312 70.378906 185.761719 L 119.183594 137.011719 C 122.996094 133.203125 129.171875 133.203125 132.984375 137.011719 C 136.796875 140.820312 136.796875 146.992188 132.984375 150.796875 L 91.082031 192.65625 L 132.984375 234.515625 C 136.796875 238.324219 136.796875 244.496094 132.984375 248.300781 C 131.078125 250.207031 128.582031 251.160156 126.082031 251.160156 Z M 174.886719 280.410156 C 173.75 280.410156 172.589844 280.210938 171.460938 279.785156 C 166.414062 277.894531 163.851562 272.273438 165.746094 267.234375 L 224.308594 111.226562 C 226.207031 106.179688 231.832031 103.632812 236.875 105.523438 C 241.921875 107.414062 244.484375 113.035156 242.589844 118.078125 L 184.027344 274.082031 C 182.554688 277.996094 178.839844 280.410156 174.886719 280.410156 Z M 282.253906 251.160156 C 279.753906 251.160156 277.261719 250.207031 275.351562 248.300781 C 271.542969 244.496094 271.542969 238.324219 275.351562 234.515625 L 317.253906 192.65625 L 275.351562 150.796875 C 271.542969 146.992188 271.542969 140.820312 275.351562 137.011719 C 279.164062 133.203125 285.34375 133.203125 289.15625 137.011719 L 337.957031 185.761719 C 341.769531 189.570312 341.769531 195.742188 337.957031 199.550781 L 289.15625 248.300781 C 287.246094 250.207031 284.753906 251.160156 282.253906 251.160156 Z M 282.253906 251.160156 " fill-opacity="1" fill-rule="nonzero"/></g></svg>